<svg xmlns="http://www.w3.org/2000/svg" xmlns:xlink="http://www.w3.org/1999/xlink" width="3840" zoomAndPan="magnify" viewBox="0 0 2880 1619.99993" height="2160" preserveAspectRatio="xMidYMid meet" version="1.0"><defs><clipPath id="d85994b608"><path d="M 1595 274 L 2880 274 L 2880 1620 L 1595 1620 Z M 1595 274 " clip-rule="nonzero"/></clipPath><clipPath id="7010f25b0c"><path d="M 1656.753906 1774.703125 L 1595.894531 1718.109375 L 2938.453125 274.359375 L 2999.3125 330.953125 Z M 1656.753906 1774.703125 " clip-rule="nonzero"/></clipPath><clipPath id="ac7c6d6c7d"><path d="M 0 74 L 1637 74 L 1637 1620 L 0 1620 Z M 0 74 " clip-rule="nonzero"/></clipPath><clipPath id="b76e896211"><path d="M -148.511719 131.226562 L -96.691406 74.988281 L 1636.792969 1672.351562 L 1584.972656 1728.589844 Z M -148.511719 131.226562 " clip-rule="nonzero"/></clipPath><clipPath id="b1f249edb1"><path d="M 1730 0 L 2880 0 L 2880 1591 L 1730 1591 Z M 1730 0 " clip-rule="nonzero"/></clipPath><clipPath id="b726f190cb"><path d="M 1730.992188 -89.296875 L 1790.5625 -136.515625 L 3122.527344 1543.757812 L 3062.957031 1590.980469 Z M 1730.992188 -89.296875 " clip-rule="nonzero"/></clipPath><clipPath id="f2ffcb77b1"><path d="M 971 0 L 2659 0 L 2659 1620 L 971 1620 Z M 971 0 " clip-rule="nonzero"/></clipPath><clipPath id="d1ba097564"><path d="M 1023.628906 1808.414062 L 971.027344 1760.6875 L 2605.890625 -41.238281 L 2658.492188 6.484375 Z M 1023.628906 1808.414062 " clip-rule="nonzero"/></clipPath><clipPath id="9f04483088"><path d="M 0 0 L 2880 0 L 2880 1437 L 0 1437 Z M 0 0 " clip-rule="nonzero"/></clipPath><clipPath id="9c7d73e029"><path d="M 3122.515625 1359.078125 L 3087.921875 1436.378906 L -121.902344 0 L -87.3125 -77.300781 Z M 3122.515625 1359.078125 " clip-rule="nonzero"/></clipPath><clipPath id="c7e7d79d07"><path d="M 426 0 L 1097 0 L 1097 1620 L 426 1620 Z M 426 0 " clip-rule="nonzero"/></clipPath><clipPath id="3055d54e6f"><path d="M 494.003906 1803.1875 L 426.378906 1781.476562 L 1029.375 -96.742188 L 1097 -75.03125 Z M 494.003906 1803.1875 " clip-rule="nonzero"/></clipPath><clipPath id="89c1557f34"><path d="M 0 0 L 2849 0 L 2849 1620 L 0 1620 Z M 0 0 " clip-rule="nonzero"/></clipPath><clipPath id="501b9b654a"><path d="M 2813.082031 -41.234375 L 2848.976562 20.054688 L -112.625 1754.460938 L -148.519531 1693.171875 Z M 2813.082031 -41.234375 " clip-rule="nonzero"/></clipPath><clipPath id="82f8b837bd"><path d="M 2549 0 L 2880 0 L 2880 330 L 2549 330 Z M 2549 0 " clip-rule="nonzero"/></clipPath><clipPath id="0d87657b8f"><path d="M 2769.558594 -226.007812 L 3104.34375 108.777344 L 2883.960938 329.160156 L 2549.175781 -5.625 Z M 2769.558594 -226.007812 " clip-rule="nonzero"/></clipPath></defs><rect x="-288" width="3456" fill="#ffffff" y="-161.999993" height="1943.999916" fill-opacity="1"/><rect x="-288" width="3456" fill="#ffffff" y="-161.999993" height="1943.999916" fill-opacity="1"/><g clip-path="url(#d85994b608)"><g clip-path="url(#7010f25b0c)"><path fill="#ffc94f" d="M 1656.753906 1774.703125 L 1595.894531 1718.109375 L 2938.4375 274.378906 L 2999.296875 330.972656 Z M 1656.753906 1774.703125 " fill-opacity="1" fill-rule="nonzero"/></g></g><g clip-path="url(#ac7c6d6c7d)"><g clip-path="url(#b76e896211)"><path fill="#191998" d="M -148.511719 131.226562 L -96.691406 74.988281 L 1636.789062 1672.347656 L 1584.96875 1728.585938 Z M -148.511719 131.226562 " fill-opacity="1" fill-rule="nonzero"/></g></g><g clip-path="url(#b1f249edb1)"><g clip-path="url(#b726f190cb)"><path fill="#191998" d="M 1730.992188 -89.296875 L 1790.5625 -136.515625 L 3122.550781 1543.789062 L 3062.980469 1591.007812 Z M 1730.992188 -89.296875 " fill-opacity="1" fill-rule="nonzero"/></g></g><g clip-path="url(#f2ffcb77b1)"><g clip-path="url(#d1ba097564)"><path fill="#ffc94f" d="M 1023.628906 1808.414062 L 971.027344 1760.6875 L 2605.964844 -41.320312 L 2658.566406 6.402344 Z M 1023.628906 1808.414062 " fill-opacity="1" fill-rule="nonzero"/></g></g><g clip-path="url(#9f04483088)"><g clip-path="url(#9c7d73e029)"><path fill="#191998" d="M 3122.515625 1359.078125 L 3087.921875 1436.378906 L -121.859375 0.0195312 L -87.265625 -77.28125 Z M 3122.515625 1359.078125 " fill-opacity="1" fill-rule="nonzero"/></g></g><g clip-path="url(#c7e7d79d07)"><g clip-path="url(#3055d54e6f)"><path fill="#ffc94f" d="M 494.003906 1803.1875 L 426.378906 1781.476562 L 1029.363281 -96.710938 L 1096.988281 -75 Z M 494.003906 1803.1875 " fill-opacity="1" fill-rule="nonzero"/></g></g><g clip-path="url(#89c1557f34)"><g clip-path="url(#501b9b654a)"><path fill="#ffc94f" d="M 2813.082031 -41.234375 L 2848.976562 20.054688 L -112.742188 1754.527344 L -148.632812 1693.242188 Z M 2813.082031 -41.234375 " fill-opacity="1" fill-rule="nonzero"/></g></g><g clip-path="url(#82f8b837bd)"><g clip-path="url(#0d87657b8f)"><path fill="#191998" d="M 2769.558594 -226.007812 L 3104.34375 108.777344 L 2884.027344 329.09375 L 2549.246094 -5.691406 Z M 2769.558594 -226.007812 " fill-opacity="1" fill-rule="nonzero"/></g></g></svg>