<svg xmlns="http://www.w3.org/2000/svg" xmlns:xlink="http://www.w3.org/1999/xlink" width="500" zoomAndPan="magnify" viewBox="0 0 375 374.999991" height="500" preserveAspectRatio="xMidYMid meet" version="1.0"><defs><clipPath id="b74de1b4da"><path d="M 64.839844 68.628906 L 310 68.628906 L 310 258 L 64.839844 258 Z M 64.839844 68.628906 " clip-rule="nonzero"/></clipPath><clipPath id="60ef8ff521"><path d="M 126 265 L 168 265 L 168 306.378906 L 126 306.378906 Z M 126 265 " clip-rule="nonzero"/></clipPath><clipPath id="0a923196b4"><path d="M 243 265 L 285 265 L 285 306.378906 L 243 306.378906 Z M 243 265 " clip-rule="nonzero"/></clipPath></defs><rect x="-37.5" width="450" fill="#ffffff" y="-37.499999" height="449.999989" fill-opacity="1"/><rect x="-37.5" width="450" fill="#ffffff" y="-37.499999" height="449.999989" fill-opacity="1"/><g clip-path="url(#b74de1b4da)"><path fill="#000000" d="M 307.398438 107.957031 C 305.453125 105.597656 302.558594 104.234375 299.5 104.234375 L 124.699219 104.234375 L 116.285156 75.960938 C 114.992188 71.613281 111 68.636719 106.464844 68.636719 L 75.191406 68.636719 C 69.53125 68.636719 64.945312 73.226562 64.945312 78.886719 C 64.945312 84.546875 69.53125 89.132812 75.191406 89.132812 L 98.824219 89.132812 L 137.113281 217.789062 C 132.964844 225.398438 129.027344 236.296875 133.492188 245.425781 C 137.441406 253.507812 146.371094 257.609375 160.03125 257.609375 C 160.277344 257.609375 160.523438 257.597656 160.773438 257.574219 C 161.660156 257.492188 249.921875 249.398438 280.355469 251.121094 C 284.789062 251.359375 288.632812 247.960938 288.886719 243.5 C 289.136719 239.039062 285.726562 235.214844 281.265625 234.96875 C 250.367188 233.226562 166.933594 240.761719 159.671875 241.425781 C 152.183594 241.375 148.714844 239.730469 148.023438 238.320312 C 147.25 236.746094 147.800781 233.777344 149.097656 230.417969 C 149.316406 230.40625 149.53125 230.40625 149.753906 230.378906 L 283.472656 214.199219 C 287.890625 213.660156 291.460938 210.332031 292.300781 205.960938 L 309.558594 116.425781 C 310.136719 113.417969 309.34375 110.316406 307.398438 107.957031 Z M 233.175781 157.671875 L 191.121094 157.671875 L 191.121094 124.730469 L 233.175781 124.730469 Z M 143.496094 167.378906 L 181.414062 167.378906 L 181.414062 205.898438 L 155.875 208.992188 Z M 191.121094 167.378906 L 233.175781 167.378906 L 233.175781 199.636719 L 191.121094 204.726562 Z M 280.746094 157.671875 L 242.882812 157.671875 L 242.882812 124.730469 L 287.09375 124.730469 Z M 181.414062 124.730469 L 181.414062 157.671875 L 140.601562 157.671875 L 130.800781 124.730469 Z M 242.882812 198.460938 L 242.882812 167.378906 L 278.871094 167.378906 L 273.597656 194.742188 Z M 242.882812 198.460938 " fill-opacity="1" fill-rule="nonzero"/></g><g clip-path="url(#60ef8ff521)"><path fill="#000000" d="M 167.933594 285.984375 C 167.933594 286.65625 167.902344 287.324219 167.835938 287.992188 C 167.769531 288.660156 167.671875 289.324219 167.539062 289.980469 C 167.410156 290.636719 167.246094 291.289062 167.050781 291.929688 C 166.859375 292.570312 166.632812 293.203125 166.375 293.820312 C 166.121094 294.441406 165.832031 295.046875 165.515625 295.636719 C 165.199219 296.230469 164.855469 296.804688 164.484375 297.363281 C 164.113281 297.917969 163.710938 298.457031 163.289062 298.976562 C 162.863281 299.496094 162.414062 299.992188 161.9375 300.464844 C 161.464844 300.9375 160.96875 301.390625 160.449219 301.8125 C 159.933594 302.238281 159.394531 302.640625 158.835938 303.011719 C 158.277344 303.382812 157.703125 303.726562 157.113281 304.042969 C 156.523438 304.359375 155.917969 304.648438 155.296875 304.902344 C 154.679688 305.160156 154.046875 305.386719 153.40625 305.582031 C 152.765625 305.777344 152.113281 305.9375 151.457031 306.070312 C 150.800781 306.199219 150.136719 306.296875 149.46875 306.363281 C 148.804688 306.429688 148.132812 306.460938 147.464844 306.460938 C 146.792969 306.460938 146.125 306.429688 145.457031 306.363281 C 144.789062 306.296875 144.128906 306.199219 143.46875 306.070312 C 142.8125 305.9375 142.164062 305.777344 141.519531 305.582031 C 140.878906 305.386719 140.25 305.160156 139.628906 304.902344 C 139.011719 304.648438 138.40625 304.359375 137.8125 304.042969 C 137.222656 303.726562 136.648438 303.382812 136.089844 303.011719 C 135.535156 302.640625 134.996094 302.238281 134.476562 301.8125 C 133.960938 301.390625 133.464844 300.9375 132.988281 300.464844 C 132.515625 299.992188 132.066406 299.496094 131.640625 298.976562 C 131.214844 298.457031 130.816406 297.917969 130.441406 297.363281 C 130.070312 296.804688 129.726562 296.230469 129.410156 295.636719 C 129.09375 295.046875 128.808594 294.441406 128.550781 293.820312 C 128.296875 293.203125 128.070312 292.570312 127.875 291.929688 C 127.679688 291.289062 127.515625 290.636719 127.386719 289.980469 C 127.257812 289.324219 127.15625 288.660156 127.09375 287.992188 C 127.027344 287.324219 126.992188 286.65625 126.992188 285.984375 C 126.992188 285.316406 127.027344 284.644531 127.09375 283.976562 C 127.15625 283.3125 127.257812 282.648438 127.386719 281.992188 C 127.515625 281.332031 127.679688 280.683594 127.875 280.042969 C 128.070312 279.398438 128.296875 278.769531 128.550781 278.148438 C 128.808594 277.53125 129.09375 276.925781 129.410156 276.332031 C 129.726562 275.742188 130.070312 275.167969 130.441406 274.609375 C 130.816406 274.050781 131.214844 273.511719 131.640625 272.996094 C 132.066406 272.476562 132.515625 271.980469 132.988281 271.503906 C 133.464844 271.03125 133.960938 270.582031 134.476562 270.15625 C 134.996094 269.730469 135.535156 269.332031 136.089844 268.960938 C 136.648438 268.585938 137.222656 268.242188 137.8125 267.925781 C 138.40625 267.609375 139.011719 267.324219 139.628906 267.066406 C 140.25 266.808594 140.878906 266.585938 141.519531 266.390625 C 142.164062 266.195312 142.8125 266.03125 143.46875 265.902344 C 144.128906 265.769531 144.789062 265.671875 145.457031 265.605469 C 146.125 265.539062 146.792969 265.507812 147.464844 265.507812 C 148.132812 265.507812 148.804688 265.539062 149.46875 265.605469 C 150.136719 265.671875 150.800781 265.769531 151.457031 265.902344 C 152.113281 266.03125 152.765625 266.195312 153.40625 266.390625 C 154.046875 266.585938 154.679688 266.808594 155.296875 267.066406 C 155.917969 267.324219 156.523438 267.609375 157.113281 267.925781 C 157.703125 268.242188 158.277344 268.585938 158.835938 268.960938 C 159.394531 269.332031 159.933594 269.730469 160.449219 270.15625 C 160.96875 270.582031 161.464844 271.03125 161.9375 271.503906 C 162.414062 271.980469 162.863281 272.476562 163.289062 272.996094 C 163.710938 273.511719 164.113281 274.050781 164.484375 274.609375 C 164.855469 275.167969 165.199219 275.742188 165.515625 276.332031 C 165.832031 276.925781 166.121094 277.53125 166.375 278.148438 C 166.632812 278.769531 166.859375 279.398438 167.050781 280.042969 C 167.246094 280.683594 167.410156 281.332031 167.539062 281.992188 C 167.671875 282.648438 167.769531 283.3125 167.835938 283.976562 C 167.902344 284.644531 167.933594 285.316406 167.933594 285.984375 Z M 167.933594 285.984375 " fill-opacity="1" fill-rule="nonzero"/></g><g clip-path="url(#0a923196b4)"><path fill="#000000" d="M 284.398438 285.984375 C 284.398438 286.65625 284.367188 287.324219 284.300781 287.992188 C 284.234375 288.660156 284.136719 289.324219 284.007812 289.980469 C 283.875 290.636719 283.714844 291.289062 283.519531 291.929688 C 283.324219 292.570312 283.097656 293.203125 282.839844 293.820312 C 282.585938 294.441406 282.296875 295.046875 281.984375 295.636719 C 281.667969 296.230469 281.324219 296.804688 280.949219 297.363281 C 280.578125 297.917969 280.179688 298.457031 279.753906 298.976562 C 279.328125 299.496094 278.878906 299.992188 278.402344 300.464844 C 277.929688 300.9375 277.433594 301.390625 276.914062 301.8125 C 276.398438 302.238281 275.859375 302.640625 275.300781 303.011719 C 274.746094 303.382812 274.171875 303.726562 273.578125 304.042969 C 272.988281 304.359375 272.382812 304.648438 271.761719 304.902344 C 271.144531 305.160156 270.511719 305.386719 269.871094 305.582031 C 269.230469 305.777344 268.582031 305.9375 267.921875 306.070312 C 267.265625 306.199219 266.601562 306.296875 265.9375 306.363281 C 265.269531 306.429688 264.601562 306.460938 263.929688 306.460938 C 263.257812 306.460938 262.589844 306.429688 261.921875 306.363281 C 261.253906 306.296875 260.59375 306.199219 259.9375 306.070312 C 259.277344 305.9375 258.628906 305.777344 257.988281 305.582031 C 257.34375 305.386719 256.714844 305.160156 256.097656 304.902344 C 255.476562 304.648438 254.871094 304.359375 254.28125 304.042969 C 253.6875 303.726562 253.113281 303.382812 252.558594 303.011719 C 252 302.640625 251.460938 302.238281 250.941406 301.8125 C 250.425781 301.390625 249.929688 300.9375 249.453125 300.464844 C 248.980469 299.992188 248.53125 299.496094 248.105469 298.976562 C 247.679688 298.457031 247.28125 297.917969 246.910156 297.363281 C 246.535156 296.804688 246.191406 296.230469 245.875 295.636719 C 245.558594 295.046875 245.273438 294.441406 245.015625 293.820312 C 244.761719 293.203125 244.535156 292.570312 244.339844 291.929688 C 244.144531 291.289062 243.984375 290.636719 243.851562 289.980469 C 243.722656 289.324219 243.625 288.660156 243.558594 287.992188 C 243.492188 287.324219 243.460938 286.65625 243.460938 285.984375 C 243.460938 285.316406 243.492188 284.644531 243.558594 283.976562 C 243.625 283.3125 243.722656 282.648438 243.851562 281.992188 C 243.984375 281.332031 244.144531 280.683594 244.339844 280.042969 C 244.535156 279.398438 244.761719 278.769531 245.015625 278.148438 C 245.273438 277.53125 245.558594 276.925781 245.875 276.332031 C 246.191406 275.742188 246.535156 275.167969 246.910156 274.609375 C 247.28125 274.050781 247.679688 273.511719 248.105469 272.996094 C 248.53125 272.476562 248.980469 271.980469 249.453125 271.503906 C 249.929688 271.03125 250.425781 270.582031 250.941406 270.15625 C 251.460938 269.730469 252 269.332031 252.558594 268.960938 C 253.113281 268.585938 253.6875 268.242188 254.28125 267.925781 C 254.871094 267.609375 255.476562 267.324219 256.097656 267.066406 C 256.714844 266.808594 257.34375 266.585938 257.988281 266.390625 C 258.628906 266.195312 259.277344 266.03125 259.9375 265.902344 C 260.59375 265.769531 261.253906 265.671875 261.921875 265.605469 C 262.589844 265.539062 263.257812 265.507812 263.929688 265.507812 C 264.601562 265.507812 265.269531 265.539062 265.9375 265.605469 C 266.601562 265.671875 267.265625 265.769531 267.921875 265.902344 C 268.582031 266.03125 269.230469 266.195312 269.871094 266.390625 C 270.511719 266.585938 271.144531 266.808594 271.761719 267.066406 C 272.382812 267.324219 272.988281 267.609375 273.578125 267.925781 C 274.171875 268.242188 274.746094 268.585938 275.300781 268.960938 C 275.859375 269.332031 276.398438 269.730469 276.914062 270.15625 C 277.433594 270.582031 277.929688 271.03125 278.402344 271.503906 C 278.878906 271.980469 279.328125 272.476562 279.753906 272.996094 C 280.179688 273.511719 280.578125 274.050781 280.949219 274.609375 C 281.324219 275.167969 281.667969 275.742188 281.984375 276.332031 C 282.296875 276.925781 282.585938 277.53125 282.839844 278.148438 C 283.097656 278.769531 283.324219 279.398438 283.519531 280.042969 C 283.714844 280.683594 283.875 281.332031 284.007812 281.992188 C 284.136719 282.648438 284.234375 283.3125 284.300781 283.976562 C 284.367188 284.644531 284.398438 285.316406 284.398438 285.984375 Z M 284.398438 285.984375 " fill-opacity="1" fill-rule="nonzero"/></g></svg>